<?xml version="1.0" encoding="iso-8859-1"?>
<!-- Generator: Adobe Illustrator 18.1.1, SVG Export Plug-In . SVG Version: 6.00 Build 0)  -->
<!DOCTYPE svg PUBLIC "-//W3C//DTD SVG 1.1//EN" "http://www.w3.org/Graphics/SVG/1.1/DTD/svg11.dtd">
<svg version="1.1" id="Layer_1" xmlns="http://www.w3.org/2000/svg" xmlns:xlink="http://www.w3.org/1999/xlink" x="0px" y="0px"
	 viewBox="0 0 500 177.869" style="enable-background:new 0 0 500 177.869;" xml:space="preserve">
<g>
	<g>
		<g>
			<g>
				<g>
					<path style="fill:#969694;" d="M20.124,176.1c-0.507-0.062,1.683,3.012,2.006,3.609C22.214,178.653,19.571,175.29,20.124,176.1
						z"/>
					<polygon style="fill:#969694;" points="20.784,165.418 21.534,166.766 20.252,163.095 					"/>
					<path style="fill:#969694;" d="M25.839,162.177c-4.005-5.056-1.248,2.062-3.398,0.741l-0.952-1.126l2.437,4.583
						C24.564,164.977,24.088,161.182,25.839,162.177z"/>
					<path style="fill:#969694;" d="M36.151,172.026c-1.54-1.981-0.605-2.18-1.054-0.244c0.21,0.188,0.315,0.309,0.461,0.455
						C35.644,172.133,35.798,172.042,36.151,172.026z"/>
					<path style="fill:#969694;" d="M35.558,172.238C35.128,172.736,37.058,173.765,35.558,172.238L35.558,172.238z"/>
					<path style="fill:#969694;" d="M37.21,169.436l0.531,2.322c0.957,1.138,1.76,1.01,2.119,2.057
						C39.903,172.325,38.949,171.195,37.21,169.436z"/>
					<path style="fill:#969694;" d="M35.293,165.084l0.159,1.027C35.855,166.587,36.069,166.704,35.293,165.084z"/>
					<path style="fill:#969694;" d="M35.783,168.28l-0.331-2.169c-0.671-0.801-1.826-2.533,0.045,0.832
						C34.513,165.313,35.367,166.939,35.783,168.28z"/>
					<path style="fill:#969694;" d="M34.812,167.747c-1.159-0.911-2.146-1.314-2.669-3.63
						C31.296,165.73,33.975,169.375,34.812,167.747z"/>
					<path style="fill:#969694;" d="M22.443,156.457l-1.556-1.228l0.732,2.096C21.258,156.284,23.582,158.118,22.443,156.457z"/>
					<path style="fill:#969694;" d="M43.373,169.363c-0.708-1.171-2.236-2.89-3.249-4.317l0.348,1.649
						C41.251,167.303,42.225,167.693,43.373,169.363z"/>
					<path style="fill:#969694;" d="M40.124,165.046l-0.521-2.467C38.764,162.801,39.252,163.815,40.124,165.046z"/>
					<polygon style="fill:#969694;" points="31.497,159.044 32.943,163.994 31.704,158.829 					"/>
					<polygon style="fill:#969694;" points="46.405,167.573 47.708,170.504 45.857,165.999 					"/>
					<path style="fill:#969694;" d="M48.049,165.829c1.117,2.4,2.879,3.414,3.425,4.985c0.271-0.741-0.514-2.918-1.218-4.875
						C50.444,167.168,49.824,167.229,48.049,165.829z"/>
					<path style="fill:#969694;" d="M49.318,163.027c0.129,0.667,0.524,1.754,0.937,2.913
						C50.152,165.283,49.9,164.407,49.318,163.027z"/>
					<path style="fill:#969694;" d="M41.285,162.283c0.514,0.651,1.817,2.383,2.75,2.862l-2.415-3.013
						C41.515,162.174,41.401,162.228,41.285,162.283z"/>
					<path style="fill:#969694;" d="M41.541,162.036l0.078,0.096c0.374-0.146,0.65-0.223,0.772-0.25
						C42.288,161.908,42.036,161.959,41.541,162.036z"/>
					<path style="fill:#969694;" d="M41.2,162.319c0.033-0.011,0.058-0.018,0.086-0.036C41.048,161.986,40.961,161.892,41.2,162.319
						z"/>
					<path style="fill:#969694;" d="M35.426,160.625c-0.729-2.093-1.055-4.64-3.769-6.779
						C32.78,156.259,34.328,157.476,35.426,160.625z"/>
					<path style="fill:#969694;" d="M38.182,158.549l-1.3-0.197c0.574,0.838,1.535,1.978,1.898,3.017L38.182,158.549z"/>
					<polygon style="fill:#969694;" points="37.91,157.266 38.182,158.549 38.663,158.622 					"/>
					<path style="fill:#969694;" d="M45.941,160.941c-0.567-1.631-0.259-2.003,0.03-2.513c-0.883-0.324-1.591-0.348-2.045-0.039
						C44.526,159.441,45.515,161.384,45.941,160.941z"/>
					<path style="fill:#969694;" d="M43.617,161.191c-0.024-0.089-0.017-0.146-0.042-0.235
						C43.348,160.716,43.252,160.653,43.617,161.191z"/>
					<path style="fill:#969694;" d="M50.278,155.626c-0.14-0.161-0.305-0.367-0.453-0.539c0.118,0.192,0.233,0.374,0.349,0.565
						L50.278,155.626z"/>
					<path style="fill:#969694;" d="M43.454,157.842c-0.759-0.389-0.452,0.535,0,1.658c0.05-0.496,0.191-0.888,0.472-1.111
						C43.656,157.915,43.464,157.611,43.454,157.842z"/>
					<path style="fill:#969694;" d="M49.528,160.738c-0.625-0.552-1.207-0.984-1.77-1.366
						C48.606,160.271,50.014,161.617,49.528,160.738z"/>
					<path style="fill:#969694;" d="M44.278,161.766c0.016,0.063,0.039,0.132,0.041,0.177
						C44.889,162.558,44.652,162.23,44.278,161.766z"/>
					<path style="fill:#969694;" d="M44.278,161.766c-0.123-0.581-0.503-1.468-0.824-2.266c-0.048,0.393-0.019,0.869,0.121,1.456
						C43.768,161.155,44.039,161.471,44.278,161.766z"/>
					<path style="fill:#969694;" d="M38.01,134.145c1.897,3.018,2.785,6.379-0.114,3.71c0.684,2.748,7.64,12.206,11.929,17.233
						c-0.83-1.315-1.62-2.516-1.97-4.806c-1.353-1.44-4.293-2.625-5.385-5.768c0.06-2.238,1.569,0.477,3.125,1.71
						c-2.884-3.421-2.192-6.296-6.014-11.598l0.326,2.537C39.331,136.326,38.78,134.748,38.01,134.145z"/>
					<path style="fill:#969694;" d="M48.086,155.794l-0.09,0.586c0.721,0.272,1.775,1.283,3.807,3.286
						c-0.403-1.817-1.016-2.998-1.63-4.014l-1.909,0.661L48.086,155.794z"/>
					<path style="fill:#969694;" d="M46.514,157.376c-1.873-3.412-1.981-5.314-4.776-8.499c-0.827,0.865,1.097,3.155,1.44,4.945
						c1.044-1.839,0.734,2.1,3.081,3.192c0.053,0.754-0.114,1.106-0.287,1.415c0.541,0.206,1.136,0.514,1.787,0.944
						c-0.062-0.063-0.109-0.113-0.169-0.178l0,0.015c-0.014-0.022-0.018-0.03-0.032-0.052c-0.333-0.359-0.518-0.59-0.287-0.406
						c-0.021-0.043-0.012-0.071-0.011-0.088c-0.286-0.458-0.516-0.871-0.733-1.269c0.895,0.369,0.625,0.794,0.733,1.269
						c0.099,0.161,0.186,0.321,0.297,0.494c0.013,0.017,0.023,0.027,0.033,0.037l0.407-2.813
						C47.368,156.152,47.011,156.518,46.514,157.376z"/>
					<path style="fill:#969694;" d="M27.914,146.325c0.237,0.254,0.387,0.487,0.546,0.719
						C28.3,146.581,28.161,146.284,27.914,146.325z"/>
					<path style="fill:#969694;" d="M29.85,147.855c0.183,0.527,0.94,1.886,0.347,1.797c-0.963-0.76-1.02-1.554-1.737-2.607
						c0.34,1.006,0.743,2.841,2.483,3.952l-0.178-0.514c1.366,0.695,4.841,4.201,5.022,4.719
						C33.684,152.409,32.153,150.438,29.85,147.855z"/>
					<path style="fill:#969694;" d="M37.684,151.76l0.266-2.453l-2.513-2.365l1.142,1.663
						C35.398,148.435,36.924,150.403,37.684,151.76z"/>
					<polygon style="fill:#969694;" points="51.488,157.139 53.565,160.675 51.145,155.345 					"/>
					<polygon style="fill:#969694;" points="52.923,155.606 54.819,158.625 54.088,156.534 					"/>
					<path style="fill:#969694;" d="M124.866,55.382l-0.17-1.098C124.686,54.665,124.754,55.025,124.866,55.382z"/>
					<path style="fill:#969694;" d="M121.942,57.016l0.896,1.51C122.435,57.634,122.097,57.004,121.942,57.016z"/>
					<path style="fill:#969694;" d="M94.585,127.72c2.39,2.41,5.853,6.307,3.583,3.004l-2.317-3.147
						C95.841,128.419,95.302,128.254,94.585,127.72z"/>
					<path style="fill:#969694;" d="M110.455,89.375c-0.261-0.281-0.541-0.585-0.816-0.883c0.598,1.206,1.15,2.325,1.673,3.37
						C111.036,91.086,110.753,90.252,110.455,89.375z"/>
					<path style="fill:#969694;" d="M101.971,75.615l2.124,1.617C103.445,76.607,102.746,76.062,101.971,75.615z"/>
					<path style="fill:#969694;" d="M137.837,41.894l-1.736-3.619C135.41,38.757,136.821,40.227,137.837,41.894z"/>
					<path style="fill:#969694;" d="M69.599,142.916c1.323,0.955,2.061,1.237,2.504,1.172
						C70.287,142.6,67.966,140.098,69.599,142.916z"/>
					<path style="fill:#969694;" d="M146.541,90.722c-0.153-0.746-0.489-1.477-0.975-2.2
						C145.69,89.24,145.964,89.955,146.541,90.722z"/>
					<path style="fill:#969694;" d="M73.495,143.156c-0.3-0.27-0.493-0.38-0.761-0.598c0.005,0.78-0.061,1.455-0.632,1.531
						C73.452,145.2,74.511,145.734,73.495,143.156z"/>
					<path style="fill:#969694;" d="M194.908,8.223c0.137,0.12,0.231,0.158,0.381,0.307C195.011,8.081,194.939,8.092,194.908,8.223z
						"/>
					<path style="fill:#969694;" d="M232.67,30.543c-0.026,0.307-0.282,0.481-0.497,0.685
						C232.439,31.373,232.625,31.22,232.67,30.543z"/>
					<path style="fill:#969694;" d="M60.722,152.517C60.5,152.967,60.901,152.915,60.722,152.517L60.722,152.517z"/>
					<path style="fill:#969694;" d="M50.476,140.773c-0.164-0.418-0.413-0.923-0.899-1.682
						C50.064,139.896,50.342,140.429,50.476,140.773z"/>
					<path style="fill:#969694;" d="M63.742,120.484c0.011-0.007,0.027-0.001,0.039-0.009
						C63.252,119.906,63.351,120.016,63.742,120.484z"/>
					<path style="fill:#969694;" d="M59.201,151.391c0.399,0.311,0.775,0.542,1.1,0.665
						C60.061,151.853,59.712,151.629,59.201,151.391z"/>
					<path style="fill:#969694;" d="M60.289,152.885c-0.221-0.065-0.373-0.081-0.524-0.108
						C60.077,153.351,60.342,153.666,60.289,152.885z"/>
					<path style="fill:#969694;" d="M61.11,152.009c-0.173,0.187-0.468,0.16-0.808,0.047c0.216,0.174,0.367,0.338,0.42,0.461
						C60.794,152.396,60.9,152.231,61.11,152.009z"/>
					<path style="fill:#969694;" d="M171.025,36.442c0.092,0.087,0.163,0.135,0.281,0.258
						C170.779,35.105,170.761,35.427,171.025,36.442z"/>
					<path style="fill:#969694;" d="M81.713,87.652c0.005,0.044,0.052,0.135,0.063,0.185c0.039,0.022,0.089,0.052,0.129,0.079
						L81.713,87.652z"/>
					<path style="fill:#969694;" d="M81.413,84.368c2.118,4.424,1.475,4.132,0.491,3.549l6.618,9.123L81.413,84.368z"/>
					<path style="fill:#969694;" d="M130.932,50.045l-2.84-2.33c-2.072-5.548-0.182-4.409-3.75-7.969
						c6.59,10.299-2.857,3.379,3.727,13.665l-2.015-1.753c0.238-0.014-0.131-0.634,0.107-0.644
						c-4.387-4.121,3.988,7.955,1.525,7.492c-1.04-0.437-2.382-1.679-2.821-3.126l0.491,3.295c-0.471,0.026-1.554-1.802-1.087-1.83
						l-1.249,1.989l-0.185-0.309c0.8,1.771,1.851,4.625,2.263,5.865c-1.417-1.166-0.485-1.233-1.439-2.43l0.64,3.125
						c-2.144-2.382-3.013-5.488-2.082-5.558c-7.63-9.588,0.871,3.109-5.039-1.535l0.081-1.909c-4.413-5.398-3.759-2.818-7.191-5.737
						c1.492,1.723,8.1,7.712,8.7,10.961c-0.809-0.572-1.449-0.677-0.675,1.76c-2.394-3.627-2.372-2.364-2.944-1.693l-3.116-4.842
						c0.149,1.891,1.82,4.3,2.795,6.762c-1.163,0.087-3.791-3.523-6.057-6.531c-1.867,0.133,4.871,5.353,3.853,7.322
						c-2.344-1.093-1.849,1.395-1.312,5.167c-1.884-1.134-1.796-3.033-2.987-4.222l1.82,4.3c-0.233,0.022-0.953-1.194-1.316-1.807
						c0.385,1.877,3.113,4.838,3.04,6.758c3.234,5.463-7.007-6.483-4.203,0.293c-1.183-1.178-1.802-3.038-3.113-4.842
						c1.013,4.988,0.529,3.76,2.724,9.928l-3.185-2.429c3.19,3.077,4.962,8.035,6.36,12.143c1.436,1.554,2.687,2.919,3.331,3.537
						l0.245,3.537c-0.695-0.674-1.635-2.422-2.718-4.587c0.162,0.461,0.326,0.917,0.492,1.328c-1.688-1.435-3.245-4.388-4.641-7.32
						c0.8,0.831,1.643,1.729,2.475,2.623c-1.564-3.159-3.356-6.614-5.283-9.381c0.27,0.616,0.402,1.213,0.378,1.613
						c-0.427-0.854-0.834-1.603-1.193-2.055c-0.383-0.474,0.166,0.69,0.735,2.073l-3.857-5.143l1.321,2.182l-4.109-2.105
						c2.19,6.292,6.233,15.015,5.53,18.649c-2.051-4.284-4.109-6.497-7.145-11.175c3.833,4.543,0.293-3.196,2.072-2.93
						c-0.924-0.133-2.257-2.439-2.618-3.312l0.956,5.8c-2.462-3.84-2.303-2.578-3.861-3.81c5.348,7.271,1.811,5.994,2.519,8.838
						c-1.715-2.497-3.218-5.206-1.826-5.248c-4.822-4.949,4.406,9.774,0.164,5.663c0.201-0.222,0.587,0.081-0.163-1.267
						c0.913,2.619-1.639,1.747-2.764-0.669l0.207-0.211c-2.193,0.165-4.925,3.162-0.958,9.715c-0.56-0.816-4.861-7.848-5.615-9.205
						l11.29,23.404c-3.361-5.659-12.936-18.103-13.644-22.081c-0.897-0.53-1.971-1.133-1.502,1.336
						c0.775,0.61,5.874,7.513,5.848,8.251c-5.002-5.473-2.831-2.824-7.467-7.244c1.166,0.921,6.398,9.82,5.599,9.951
						c-0.751-1.352-5.645-8.469-6.008-9.513l4.024,9.467c-0.618-1.776-4.647-7.211-6.563-9.375c1.249,1.551-1.431,0.721-1.29,1.828
						l1.941,1.531c-2.577-0.135,6.107,13.02,4.092,13.709c-0.941-1.885-6.557-11.089-8.133-11.577
						c2.448,4.596,11.926,22.001,12.594,26.337l-1.92-2.282l0.685,3.589c-3.559-6.996-10.535-22.052-12.929-28.121
						c-1.939-1.533-2.101-2.799-2.927-1.935c-1.87-2.094-1.785-3.869-1.588-4.194l-3.251-0.007c3.429,4.992,1.602,6.21,4.459,10.364
						l-0.985-6.858c3.418,4.979,8.015,15.284,5.823,15.447c-1.732-1.743-5.614-9.199-6.756-10.863
						c0.937,1.878,0.662,4.325-0.297,3.189l-1.097-3.15c-2.145-1.314,2.949,7.66-1.299,3.542c-0.583-0.079-5.389-5.781-3.485-2.747
						c4.399,5.37,16.255,23.135,18.702,27.732c-0.386-0.303-5.574-4.234-7.872-6.804c-3.586-4.121-6.175-11.382-9.25-14.924
						c0.886,1.395,1.669,3.321,1.889,3.961c-1.165-0.923-2.653-4.384-3.088-3.203c3.231,5.219-2.006,0.699,2.45,4.596
						c0.136,2.009-1.572-0.475-2.397,0.388c2.488,3.109,6.542,11.846,6.674,13.852c-0.808-1.335-2.11-2.909-2.71-3.625
						c-2.001,0.654-4.442-1.075-6.053-0.078c-0.962-1.145-2.713-2.145-3.84-4.565c0.369,1.056,1.303,2.931,0.897,3.377
						c-3.86-3.811,0.634-1.406-3.588-6.257c1.897,3.018,1.441,4.938,1.971,7.257c3.24,4.459,2.185-0.175,1.659-2.491
						c4.177,6.342,7.337,13.784,7.613,17.805c-0.278,2.44-3.267-3.726-2.901-2.673c-3.198,0.515,5.186,12.463,0.125,9.233
						c-3.472-3.507-5.328-8.02-7.426-10.816c0.063-2.235,3.331,1.485,3.951,0.846l-2.151-1.325c-0.543-1.568-0.5-3.058,0.66-2.143
						c-3.071-3.183-4.629,2.045-8.738-0.054c0.553,1.577,0.892,3.364,2.238,4.808l0.23-0.962c2.698,2.896,1.832,5.254,3.597,6.276
						c0.699,2.823,2.162,7.02-0.188,5.926l-3.247-4.471c0.911,1.331,2.551,2.257,1.945,0.641c0.871,2.356-5.848-5.09-2.397,1.287
						l2.899,2.669c0.712,2.85,2.929,8.404,0.964,7.613c3.454,4.251-0.11-0.674,4.111,4.182c-4.981-6.219,2.763-1.418-2.817-7.726
						c4.803,5.699,2.997,1.785,7.426,6.424c-1.029-1.5-2.253-2.684-0.914-2.492c-0.254-0.47-0.535-1.094-0.696-1.462
						c0.053,0.024,0.079,0.043,0.132,0.076c-0.056-0.047-0.112-0.105-0.165-0.149c-0.113-0.252-0.141-0.301-0.058-0.051
						c-0.639-0.532-1.329-1.225-1.953-2.029c-1.877-3.768-0.458-4.543-1.191-6.649c0.978,0.392,0.937,1.882,2.279,3.324l-1.098-3.15
						c2.29,3.334,5.025,4.732,5.143,7.489l1.164-0.55c1.873,1.482,3.231,1.668,2.828-0.103c0.983,0.4-1.19-4.572,0.112-1.641
						l0.294-3.191l0.571,0.834c1.928-0.658-0.286-7.824,5.607-2.968c-0.006-1.217-0.118-2.637,1.441-2.289l2.103,2.803
						c0.041-1.489,4.062,1.515,2.366-1.73c5.939,7.355,4.585-0.559,6.756,0.011l-2.462-3.846c1.005-0.351,1.119-1.977,1.182-4.213
						l-2.283-3.327c-0.898-3.376,3.95,0.836,5.182-0.469c0.749,1.354,0.156,1.26-0.618,0.654c6.753,6.467,0.035-7.96,5.266-3.453
						c-0.413-1.486,0.148-1.255,0.982-0.589c-0.032,0.032-0.024,0.116,0.018,0.241c0.067,0.014,0.132-0.019,0.189-0.066
						c0.555,0.465,1.179,1.023,1.728,1.435c-0.704-0.71-1.306-1.281-1.649-1.503c0.258-0.27,0.443-0.992,0.34-2.134l2.574,3.494
						c0.005-0.072,0.04-0.084,0.037-0.172c1.322,1.044-0.771-1.949-2.8-4.517c-0.164-0.744-0.426-1.597-0.839-2.577
						c4.205,5.607-0.109-2.748,4.483,3.162c-1.695-3.24,0.767-3.782-3.199-10.335c0.563,0.823,0.957,1.132,0.747,1.344
						c0.984,0.399,1.966,0.795,1.232-1.305l3.242,4.463l-2.972-6.914c2.514,2.366,3.863,3.814,5.53,7.793
						c-1.982-6.502-0.05-2.908-2.24-9.204l1.892,3.02c0.412-0.434-1.432-4.933,0.48-2.667c4.811,4.94,5.906-2.765,12.161,0.653
						c-6.307-8.406,3.884,3.073-0.473-3.792c1.525,1.964,2.686,2.879,3.418,4.979c0.087-2.976,4.307,1.876,1.524-4.5
						c1.533,1.975,1.694,3.241,2.649,4.375c-0.18-0.523-0.732-2.101,0.23-0.961c0.957,1.138,0.936,1.878,1.304,2.93
						c1.229-1.308-2.826-7.793-6.664-13.858c2.606,2.352,2.711,1.709,0.658-2.574c1.547,1.791,3.326,3.561,2.884,4.862
						c0.698-0.049,5.005,0.827,1.895-4.013c0.961,1.114,0.947-0.112,0.716-0.755c1.332-0.466,1.718-0.099,2.541-1.293l-0.828-0.581
						c-3.37-6.089,0.083-1.907,0.53-3.2l0.365,0.612c4.827,2.816-0.422-2.594,4.765,0.832l-2.483-3.532
						c-4.912-7.883,4.824,3.381,4.061-0.367l-1.784-1.777c-1.097-3.082,8.753,9.354,10.043,9.894c0.586,0.582,0.488,1.23,0.618,1.86
						c4.716,3.452-2.887-4.87-2.337-6.805c1.911,2.394,3.96,6.679,5.128,6.589c1.784,1.783-2.958-9.905,1.424-5.787
						c-1.549-1.795-3.094-3.587-3.475-5.451c0.444-1.297,7.331,5.813,4.077-0.915c0.468,0.46,0.85,0.946,1.175,1.431
						c-0.358-2.052,0.503-4.134-1.287-7.764c8.835,12.037,0.318-8.889,7.86,2.609l1.724-2.017l0.717,1.211
						c1.861-0.135,0.531-3.205-0.805-6.277c0.829,0.575,1.304,1.798,1.674,2.417c3.512,1.008,3.389,0.39,1.291-6.43l2.625,3.612
						c-0.973-2.463,6.72,3.953,5.811-1.676c0.258,0.434,0.694,1.184,0.885,1.812c-0.682-5.816,12.054,6.883,3.929-7.219
						l-0.752-4.297c-2.567,0.178-3.595-6.073-5.849-7.82c0.213-1.281,4.598,2.841,4.151,4.134l-0.588-0.586
						c4.321,7.293,3.977,0.976,7.096,5.826c3.457-2.773,9.627-1.22,13.278-3.19l-4.016-5.238l1.412-0.477
						c1.159,1.073,3.255,4.024,2.246,4.361c2.503,2.82-0.276-3.558-1.039-4.771c3.148,1.122,3.562,6.846,4.165,6.639l0.43-0.872
						l-0.581-0.539c-0.91-2.62-2.427-5.036-1.215-5.443c1.378,0.671,2.566,3.171,2.964,3.215c0.255,0.39,0.462,0.517,0.498-0.102
						l1.827-0.528l-3.464-3.944c-0.736-2.583,1.577-0.711-2.36-5.17c6.018,6.909,7.453-1,9.632,0.939
						c-1.14-3.784-0.174-4.341,1.229-4.717c-0.88-0.715-4.264-5.485-2.877-5.541c6.264,10.314,4.696,3.176,10.267,9.895
						c-3.879-4.334,2.044-3.045-3.572-9.129c1.365,0.27,2.531,3.738,4.72,5.695c-0.594-5.2,6.017-0.324,7.589-3.246
						c-0.832-1.347-2.571-3.101-3.342-5.413l5.637,5.765c0.054-0.966-4.578-7.925-0.679-3.914c-0.856-1.031-2.145-2.586-2.1-3.222
						c9.017,3.301,6.29-11.702,19.108-2.785c-2.343-2.131-2.072-2.672-1.633-3.098c-0.729-0.398-2.142-3.272-3.385-5.021
						l5.306,3.642c-2.902-5.218,1.956-1.77-0.96-6.664l-0.081,1.278c-2.837-6.176-9.404-11.688-14.017-18.973
						c3.24,7.011-8.742-7.788-4.305,2.38c-1.313-1.24-1.23-2.514-2.515-4.063c1.632,3.349,1.574,4.309-0.228,3.511l-0.402-0.83
						c-2.01,2.4-5.086,0.063-9.233-0.112l2.551,3.424c-0.918-0.079-1.78-1.112-2.65-1.817c2.859,5.857,1.899-0.813,5.184,5.558
						c-5.57-6.72-4.336,2.695-10.296-5.184c-0.959,0.568,2.985,3.944,2.024,4.508l-1.713-2.066l1.654,3.026
						c-0.921-0.073-3.062-2.657-4.327-4.529c0.295,0.127,0.073-0.805,0.125-1.071c-2.518-2.105-1.64,2.363-2.475,1.686l1.797,0.785
						c-1.167,3.755-6.191,2.868-5.664,9.012l1.293,1.56c0.172,4.341-2.715-0.86-3.825,1.932l-0.189-0.45
						c0.69,1.945,0.696,3.151,0.008,3.33c-0.775-2.309-3.494-3.183-4.245-5.808c0.164,4.673,0.72,3.282,3.487,10.41l-2.142-2.583
						c1.202,2.823,2.038,4.177,1.487,5.576c-0.733-2.948-3.45-3.817-4.588-7.602c-6.166-4.68,0.851,8.262-6.005-0.005
						c4.087,8.368,4.684,3.058,5.216,5.075c2.123,2.217,2.977,6.305,1.791,5.975c-0.802,0.281-7.665-9.102-9.3-7.816
						c0.197-0.076-0.176-0.668,0.018-0.748c-1.943-1.541,0.484,3.501-2.415,0.826c2.624,4.959-1.208,0.411,2.578,6.447l0.683-2.422
						c0.123,2.149,3.861,9.669,0.155,7.268c-0.674-1.277-1.272-3.146-1.548-4.227c-1.588-1.47-0.07,1.713-1.705,0.207
						c-3.792-6.043,1.078-2.566-0.945-7.742c-2.12-2.209,1.013,5.514-2.746-1.255c4.699,8.661-2.387,0.087,0.56,7.122l-2.27-3.619
						c0.184,0.684,0.908,2.622,0.507,2.755L162,28.876c1.647,4.571-4.101-2.247-3.598,0.5c1.834-1.365,3.256,4.018,5.775,6.09
						c0.79,6.323-7.492-8.444-9-5c0.026-0.738,2.748,1.263,3.278,3.283c-0.984-0.405-2.547-1.339-4.086-3.008
						c-1.257,1.889,2.683,3.495,3.382,6.175c-3.453-3.956,0.308,2.333,0.459,4.228l-2.392-3.624
						c-3.519-1.019,4.446,7.906,0.806,6.272l-2.553-5.528l-0.078,1.914l-2.522-4.253c0.999,3.729,0.161,3.144-1.594,2.642
						c1.912,2.404,4.201,6.668,3.395,7.361c-2.018-1.76-1.932-3.669-2.839-2.33c-1.211-2.455-2.776-5.507-0.035-2.522
						c-0.722-1.219-1.22-2.46-1.931-3.665c-2.277-2.052-1.997,0.505-2.427,0.834c0.264,0.022,0.6,0.08,1.047,0.527l1.497,6.217
						c-1.181-1.175-1.675-2.418-2.156-3.636c-0.108,0.634,0.735,2.467,0.401,3.134c-1.8-3.04-3.836-6.062-3.986-7.951l0.428,4.406
						c-0.958-1.205-3.201-2.939-3.692-4.173c-2.096-1.104,1.419,7.263-1.353,5.809c0.311,0.615,0.539,1.25,0.547,1.849
						c-1.63,0.116-5.064-2.807-3.817,2.164l-4.279-4.76c-0.316,1.927,5.465,5.946,4.936,9.151c-0.195,2.542-3.453-4.189-4.878-5.361
						c1.105,3.092,3.546,9.256-0.481,5.741C129.995,50.104,130.82,50.681,130.932,50.045z M118.84,61.356
						c-0.236-0.934-1.255-3.63,0.346-1.616C121.619,64.093,120.078,62.257,118.84,61.356z M103.861,83.723
						c-0.593-1.329,0.102-0.934,1.348,0.213C105.156,84.397,104.785,84.447,103.861,83.723z M62.744,146.957
						c-0.027-0.066-0.048-0.115-0.088-0.195C64.176,147.788,63.6,147.368,62.744,146.957z M60.485,146.187
						c0.21,0.587,0.549,1.084,0.935,1.557c-0.519-0.974-0.285-1.217,0.197-1.166C60.904,145.685,60.314,145.132,60.485,146.187z
						 M190.949,58.316l-0.863-0.794C189.937,56.125,190.407,57.168,190.949,58.316z"/>
					<path style="fill:#969694;" d="M102.946,77.214c0.478,0.564,0.943,1.226,1.41,1.897
						C104.059,78.433,103.597,77.727,102.946,77.214z"/>
					<path style="fill:#969694;" d="M138.158,42.562c0.033,0.02,0.039,0,0.068,0.013c-0.12-0.232-0.253-0.461-0.389-0.682
						L138.158,42.562z"/>
					<path style="fill:#969694;" d="M59.207,102.963c0.595,0.356,1.172,0.928,1.717,1.553
						C60.354,103.619,59.746,102.945,59.207,102.963z"/>
					<path style="fill:#969694;" d="M58.055,156.617l0.163-1.459c-0.261,0.429-0.918-0.275-1.488-0.725
						C57.305,155.269,58.262,156.397,58.055,156.617z"/>
					<path style="fill:#969694;" d="M36.486,138.645c0.178,0.52-0.211,0.208-0.027,0.733l1.14,1.665
						C38.014,140.612,37.461,139.029,36.486,138.645z"/>
					<path style="fill:#969694;" d="M49.401,145.041c-2.069-3.01-1.88-1.652-2.057-0.725c0.026-0.033,0.04-0.079,0.097-0.064
						C50.088,148.629,49.743,146.831,49.401,145.041z"/>
					<path style="fill:#969694;" d="M47.284,144.503c-0.075,0.254-0.195,0.448-0.457,0.411
						C47.888,146.667,47.267,145.135,47.284,144.503z"/>
					<path style="fill:#969694;" d="M60.263,149.231c-0.777-0.615,2.404,4.01,1.438,2.862
						C63.965,156.169,60.345,146.252,60.263,149.231z"/>
					<polygon style="fill:#969694;" points="42.343,135.281 45.018,138.919 43.328,135.68 					"/>
					<path style="fill:#969694;" d="M48.497,135.194l-1.563-0.466c0.429,0.623,0.561,1.067,0.61,1.44
						C48.167,135.937,49.252,136.297,48.497,135.194z"/>
					<path style="fill:#969694;" d="M47.544,136.168c-0.33,0.112-0.544,0.369-0.296,1.089
						C47.374,137.116,47.62,136.776,47.544,136.168z"/>
					<polygon style="fill:#969694;" points="42.798,133.361 43.575,133.976 44.376,133.845 					"/>
					<path style="fill:#969694;" d="M58.406,129.717l0.247-1.71c-0.752-1.356-1.533-1.974-1.551-1.226
						C57.465,127.833,57.438,128.566,58.406,129.717z"/>
					<path style="fill:#969694;" d="M48.724,121.305c0.773,0.612,1.344,1.441,2.306,2.586l-3.043-4.689L48.724,121.305z"/>
					<path style="fill:#969694;" d="M50.799,118.378c-0.757-1.359-1.057-4.633-2.078-3.541
						C49.469,116.186,49.218,117.892,50.799,118.378z"/>
					<polygon style="fill:#969694;" points="69.111,114.795 68.907,115.014 73.979,122.649 					"/>
					<path style="fill:#969694;" d="M69.775,88.11c-2.342-1.089,2.839,4.902,0.307,3.286c0.924,1.985,2.067,1.317,2.823,3.061
						C72.334,92.098,73.403,92.94,69.775,88.11z"/>
					<path style="fill:#969694;" d="M72.905,94.457c0.088,0.373,0.214,0.817,0.416,1.394C73.205,95.243,73.057,94.815,72.905,94.457
						z"/>
					<polygon style="fill:#969694;" points="238.048,32.897 239.829,34.014 237.665,31.75 					"/>
					<path style="fill:#969694;" d="M235.713,26.295l3.382,4.767l-2.467-4.705C236.605,26.682,236.563,27.314,235.713,26.295z"/>
					<path style="fill:#969694;" d="M110.345,52.857l0.717,1.212c0.948,1.196,1.182,1.179,1.655,1.152L110.345,52.857z"/>
					<polygon style="fill:#969694;" points="122.643,50.001 122.408,50.014 125.629,54.218 					"/>
					<path style="fill:#969694;" d="M127.246,38.91c-0.46,0.039-0.211,1.286-0.674,1.323
						C126.786,38.949,130.957,44.353,127.246,38.91z"/>
				</g>
			</g>
		</g>
	</g>
</g>
<g>
	<g>
		<g>
			<g>
				<g>
					<path style="fill:#969694;" d="M487.554,139.796c0.213,0.501,1.941-2.855,2.332-3.411
						C488.844,136.753,487.086,140.657,487.554,139.796z"/>
					<polygon style="fill:#969694;" points="477.114,143.71 477.983,142.435 475.205,145.194 					"/>
					<path style="fill:#969694;" d="M471.339,140.349c-2.625,5.898,2.617,0.294,2.523,2.869l-0.552,1.369l3.02-4.229
						C474.668,140.355,471.34,142.411,471.339,140.349z"/>
					<path style="fill:#969694;" d="M475.107,126.507c-1.044,2.283-1.734,1.492,0.335,1.091c0.065-0.277,0.123-0.426,0.182-0.625
						C475.479,126.936,475.311,126.831,475.107,126.507z"/>
					<path style="fill:#969694;" d="M475.624,126.973C476.325,127.164,476.262,124.919,475.624,126.973L475.624,126.973z"/>
					<path style="fill:#969694;" d="M472.091,126.614l1.908-1.483c0.561-1.38,0.009-2.078,0.805-2.858
						C473.375,122.865,472.82,124.238,472.091,126.614z"/>
					<path style="fill:#969694;" d="M469.011,130.257l0.884-0.584C470.128,129.092,470.124,128.842,469.011,130.257z"/>
					<path style="fill:#969694;" d="M471.766,128.441l-1.871,1.231c-0.396,0.969-1.412,2.786,0.762-0.395
						C469.645,130.89,470.723,129.4,471.766,128.441z"/>
					<path style="fill:#969694;" d="M471.784,129.577c-0.238,1.472-0.089,2.568-1.996,4.042
						C471.766,133.727,473.77,129.671,471.784,129.577z"/>
					<path style="fill:#969694;" d="M467.761,145.958l-0.325,1.979l1.587-1.576C468.233,147.141,468.718,144.186,467.761,145.958z"
						/>
					<path style="fill:#969694;" d="M468.715,120.87c-0.726,1.16-1.529,3.322-2.332,4.876l1.37-1.026
						C467.909,123.732,467.755,122.654,468.715,120.87z"/>
					<path style="fill:#969694;" d="M466.383,125.746l-2.05,1.535C464.991,127.973,465.688,127.085,466.383,125.746z"/>
					<polygon style="fill:#969694;" points="465.344,136.377 469.242,132.921 465.03,136.273 					"/>
					<polygon style="fill:#969694;" points="465.398,118.789 467.466,116.324 464.205,119.97 					"/>
					<path style="fill:#969694;" d="M462.869,117.988c1.667-2.065,1.678-4.146,2.87-5.324c-0.845,0.06-2.48,1.719-3.95,3.21
						C462.848,115.176,463.238,115.731,462.869,117.988z"/>
					<path style="fill:#969694;" d="M459.542,117.988c0.56-0.404,1.375-1.235,2.248-2.114
						C461.224,116.249,460.533,116.857,459.542,117.988z"/>
					<path style="fill:#969694;" d="M463.15,125.83c0.339-0.758,1.275-2.713,1.227-3.791l-1.549,3.542
						C462.924,125.661,463.036,125.745,463.15,125.83z"/>
					<path style="fill:#969694;" d="M462.779,125.695l0.049-0.114c-0.339-0.289-0.559-0.514-0.65-0.617
						C462.257,125.05,462.441,125.265,462.779,125.695z"/>
					<path style="fill:#969694;" d="M463.23,125.895c-0.028-0.026-0.048-0.047-0.08-0.065
						C462.997,126.178,462.955,126.3,463.23,125.895z"/>
					<path style="fill:#969694;" d="M464.729,132.024c-1.585,1.571-3.815,2.957-4.379,6.408
						C462.025,136.356,462.344,134.389,464.729,132.024z"/>
					<path style="fill:#969694;" d="M461.29,130.323l0.512,1.302c0.483-0.893,1.044-2.278,1.83-3.059L461.29,130.323z"/>
					<polygon style="fill:#969694;" points="460.223,131.122 461.29,130.323 461.1,129.841 					"/>
					<path style="fill:#969694;" d="M459.384,122.038c-1.235,1.223-1.752,1.092-2.389,1.038c0.168,0.965,0.525,1.638,1.061,1.933
						C458.727,124,460.031,122.249,459.384,122.038z"/>
					<path style="fill:#969694;" d="M460.867,124.109c-0.071,0.06-0.129,0.078-0.199,0.139
						C460.563,124.563,460.556,124.68,460.867,124.109z"/>
					<path style="fill:#969694;" d="M452.037,120.229c-0.077,0.2-0.183,0.442-0.266,0.653c0.117-0.192,0.228-0.377,0.347-0.567
						L452.037,120.229z"/>
					<path style="fill:#969694;" d="M457.792,125.683c0.04,0.877,0.748,0.197,1.566-0.704c-0.495,0.164-0.941,0.198-1.303,0.029
						C457.753,125.463,457.569,125.772,457.792,125.683z"/>
					<path style="fill:#969694;" d="M457.267,118.763c-0.186,0.82-0.281,1.548-0.34,2.238
						C457.322,119.825,457.837,117.934,457.267,118.763z"/>
					<path style="fill:#969694;" d="M461.056,123.246c0.051-0.042,0.104-0.092,0.145-0.114
						C461.476,122.337,461.293,122.698,461.056,123.246z"/>
					<path style="fill:#969694;" d="M461.056,123.246c-0.483,0.362-1.116,1.094-1.698,1.734c0.397-0.122,0.831-0.351,1.31-0.731
						C460.752,123.983,460.906,123.595,461.056,123.246z"/>
					<path style="fill:#969694;" d="M438.336,140.84c1.832-3.058,4.53-5.316,3.564-1.468c2.228-1.807,7.426-12.339,9.872-18.49
						c-0.796,1.336-1.506,2.586-3.481,3.885c-0.634,1.879-0.175,5.136-2.557,7.493c-2.146,0.894-0.392-1.673-0.062-3.654
						c-1.683,4.154-4.769,4.726-7.725,10.557l2.221-1.382C439.687,138.676,438.492,139.862,438.336,140.84z"/>
					<path style="fill:#969694;" d="M453.373,122.211l0.602-0.164c-0.13-0.791,0.259-2.208,1.059-4.962
						c-1.499,1.149-2.286,2.224-2.916,3.23l1.649,1.508L453.373,122.211z"/>
					<path style="fill:#969694;" d="M455.71,123.013c-2.217,3.203-3.955,4.112-5.462,8.082c1.261,0.408,2.391-2.367,3.897-3.447
						c-2.297-0.198,1.589-1.579,1.361-4.241c0.683-0.369,1.105-0.363,1.49-0.332c-0.096-0.595-0.124-1.282-0.068-2.074
						c-0.027,0.085-0.048,0.15-0.077,0.233l0.015-0.006c-0.013,0.023-0.019,0.03-0.032,0.052c-0.16,0.465-0.28,0.735-0.23,0.441
						c-0.03,0.038-0.061,0.041-0.077,0.047c-0.279,0.463-0.545,0.853-0.805,1.226c-0.132-0.995,0.414-0.923,0.805-1.226
						c0.099-0.161,0.203-0.31,0.307-0.488c0.009-0.02,0.013-0.033,0.017-0.046l-2.875,0.812
						C454.096,122.733,454.634,122.912,455.71,123.013z"/>
					<path style="fill:#969694;" d="M455.257,145.131c0.113-0.33,0.252-0.569,0.387-0.816
						C455.29,144.66,455.085,144.917,455.257,145.131z"/>
					<path style="fill:#969694;" d="M455.663,142.668c0.4-0.395,1.277-1.681,1.51-1.088c-0.201,1.225-0.92,1.615-1.53,2.734
						c0.768-0.746,2.284-1.902,2.4-4.004l-0.39,0.385c-0.077-1.575,1.37-6.319,1.761-6.708
						C457.905,137.143,456.865,139.414,455.663,142.668z"/>
					<path style="fill:#969694;" d="M455.146,133.67l-2.46,0.792l-0.884,3.358l0.957-1.776
						C453.232,137.223,454.272,134.958,455.146,133.67z"/>
					<polygon style="fill:#969694;" points="452.816,118.453 455.041,115.007 451.306,119.536 					"/>
					<polygon style="fill:#969694;" points="450.599,117.759 452.433,114.702 450.85,116.274 					"/>
					<path style="fill:#969694;" d="M317.345,92.878l-0.946,0.625C316.764,93.352,317.067,93.135,317.345,92.878z"/>
					<path style="fill:#969694;" d="M320.457,94.925l0.946-1.48C320.775,94.201,320.362,94.785,320.457,94.925z"/>
					<path style="fill:#969694;" d="M401.907,90.556c0.993-3.262,2.815-8.161,0.914-4.631l-1.728,3.507
						C401.892,89.082,402.026,89.658,401.907,90.556z"/>
					<path style="fill:#969694;" d="M357.179,91.957c-0.125,0.364-0.262,0.756-0.396,1.139c0.818-1.072,1.579-2.065,2.284-2.998
						C358.483,90.686,357.848,91.305,357.179,91.957z"/>
					<path style="fill:#969694;" d="M348.738,105.746l0.387-2.677C348.883,103.943,348.744,104.83,348.738,105.746z"/>
					<path style="fill:#969694;" d="M297.646,86.448l-2.486,3.162C295.987,90.054,296.618,88.108,297.646,86.448z"/>
					<path style="fill:#969694;" d="M429.666,107.519c0.192-1.644,0.062-2.456-0.237-2.843
						C428.998,107.008,427.881,110.245,429.666,107.519z"/>
					<path style="fill:#969694;" d="M339.085,57.573c-0.623,0.46-1.132,1.085-1.554,1.847
						C338.142,58.999,338.67,58.439,339.085,57.573z"/>
					<path style="fill:#969694;" d="M427.802,103.767c-0.094,0.396-0.095,0.623-0.157,0.967c0.733-0.336,1.407-0.56,1.784-0.058
						C429.755,102.94,429.691,101.721,427.802,103.767z"/>
					<path style="fill:#969694;" d="M235.221,47.262c0.04-0.179,0.025-0.284,0.085-0.488
						C235.032,47.225,235.081,47.288,235.221,47.262z"/>
					<path style="fill:#969694;" d="M236.032,2.407c0.303-0.106,0.605,0.06,0.913,0.175C236.941,2.271,236.697,2.162,236.032,2.407z
						"/>
					<path style="fill:#969694;" d="M443.496,111.763C444.041,111.78,443.776,111.426,443.496,111.763L443.496,111.763z"/>
					<path style="fill:#969694;" d="M437.905,126.347c-0.306,0.331-0.65,0.779-1.105,1.556
						C437.298,127.105,437.652,126.618,437.905,126.347z"/>
					<path style="fill:#969694;" d="M411.626,122.526c-0.012-0.007-0.015-0.024-0.03-0.032
						C411.343,123.23,411.393,123.091,411.626,122.526z"/>
					<path style="fill:#969694;" d="M443.249,113.665c0.08-0.506,0.096-0.957,0.038-1.313
						C443.224,112.664,443.2,113.085,443.249,113.665z"/>
					<path style="fill:#969694;" d="M444.076,112.012c0.058,0.235,0.123,0.384,0.179,0.537
						C444.63,112.013,444.785,111.631,444.076,112.012z"/>
					<path style="fill:#969694;" d="M442.809,111.615c0.27,0.083,0.402,0.37,0.478,0.737c0.048-0.276,0.122-0.487,0.21-0.589
						C443.343,111.747,443.131,111.717,442.809,111.615z"/>
					<path style="fill:#969694;" d="M274.687,57.665c0.033-0.123,0.04-0.21,0.093-0.373
						C273.556,58.463,273.87,58.343,274.687,57.665z"/>
					<path style="fill:#969694;" d="M370.978,119.619c0.039-0.023,0.1-0.106,0.141-0.137c0-0.046,0.002-0.106,0.006-0.154
						L370.978,119.619z"/>
					<path style="fill:#969694;" d="M368.037,121.294c3.041-3.862,3.11-3.135,3.088-1.966l5.064-10.072L368.037,121.294z"/>
					<path style="fill:#969694;" d="M309.049,89.459l-0.676,3.65c-4.127,4.296-4.066,2.041-5.512,6.895
						c6.189-10.545,4.725,1.243,10.904-9.291l-0.574,2.631c-0.141-0.217-0.528,0.391-0.665,0.173
						c-1.537,5.859,5.372-7.113,6.257-4.608c0.146,1.159-0.307,2.944-1.438,3.969l2.848-1.859c0.277,0.43-0.868,2.221-1.145,1.795
						l2.548,0.326l-0.193,0.304c1.243-1.502,3.374-3.697,4.324-4.609c-0.341,1.823-0.904,0.978-1.523,2.38l2.607-1.925
						c-1.099,3.019-3.565,5.152-4.132,4.309c-4.959,11.217,2.469-2.135,1.254,5.373l-1.846,0.734
						c-2.729,6.425-0.644,4.719-1.559,9.173c0.826-2.129,2.936-10.862,5.682-12.804c-0.106,1.001,0.139,1.645,2.024-0.114
						c-2.141,3.782-0.959,3.226-0.019,3.477l-2.9,4.974c1.706-0.942,3.084-3.53,4.885-5.489c0.706,1.053-1.293,5.048-2.916,8.447
						c1.128,1.692,2.441-6.836,4.847-6.718c0.226,2.66,2.31,1.141,5.584-0.963c-0.06,2.246-1.9,2.97-2.384,4.59l3.084-3.53
						c0.145,0.209-0.616,1.399-1.001,2c1.566-1.158,2.898-4.97,4.751-5.716c3.424-5.348-2.361,9.317,2.532,3.814
						c-0.478,1.608-1.902,2.977-2.902,4.972c4.167-3.066,3.267-2.091,7.914-6.765l-0.584,4.014
						c1.193-4.295,4.924-8.058,8.054-11.112c0.697-2.005,1.314-3.756,1.552-4.622l3.209-1.73c-0.264,0.937-1.41,2.56-2.873,4.493
						c0.349-0.347,0.69-0.695,0.99-1.024c-0.449,2.191-2.402,4.903-4.422,7.455c0.355-1.102,0.751-2.273,1.148-3.432
						c-2.144,2.806-4.445,5.951-6.024,8.931c0.437-0.515,0.93-0.892,1.32-1.039c-0.577,0.763-1.066,1.462-1.3,1.99
						c-0.243,0.56,0.563-0.448,1.563-1.568l-2.787,5.796l1.352-2.163l0.217,4.743c4.766-4.722,10.834-12.212,14.643-13.095
						c-2.945,3.739-3.93,6.607-6.718,11.436c2.233-5.519-3.176,1.081-3.879-0.698c0.37,0.923-1.092,3.15-1.722,3.859l4.964-3.356
						c-2.305,3.936-1.198,3.252-1.526,5.234c3.996-8.096,4.688-4.241,6.994-6.11c-1.438,2.666-3.189,5.224-3.976,3.938
						c-2.086,6.619,6.865-8.276,5.26-2.557c-0.317-0.094-0.238-0.585-1.109,0.69c1.983-1.967,2.53,0.795,0.851,2.874l-0.31-0.105
						c1.333,1.985,5.629,3.274,9.688-3.225c-0.47,0.871-4.803,7.886-5.679,9.167l16.042-20.51
						c-3.54,5.55-10.153,19.802-13.529,22.155c-0.02,1.065-0.012,2.327,2.068,0.84c0.16-0.985,3.942-8.692,4.653-8.981
						c-2.484,7.01-1.147,3.851-2.833,10.07c0.244-1.483,5.84-10.161,6.392-9.469c-0.874,1.278-4.968,8.883-5.759,9.667l6.78-7.788
						c-1.345,1.333-4.316,7.414-5.331,10.128c0.795-1.829,1.449,1.035,2.419,0.433l0.404-2.469
						c1.256,2.472,9.017-11.247,10.75-9.652c-1.275,1.682-6.953,10.849-6.568,12.533c3.026-4.244,14.376-20.51,18.112-22.976
						l-1.125,2.768l3.021-2.165c-4.696,6.303-15.171,19.23-19.617,24.047c-0.407,2.468-1.516,3.156-0.257,3.564
						c-0.974,2.641-2.696,3.315-3.108,3.268l1.738,3.049c2.874-5.331,5.004-4.137,7.394-8.576l-5.948,3.834
						c2.867-5.316,10.131-13.996,11.463-12.011c-0.716,2.362-5.674,9.164-6.632,10.94c1.27-1.674,3.729-2.456,3.171-1.075
						l-2.386,2.364c-0.089,2.567,5.651-6.014,4.042-0.286c0.238,0.58-2.567,7.503-0.724,4.431c2.71-6.4,13.124-25.048,16.152-29.291
						c-0.079,0.49-1.007,7.02-2.201,10.263c-1.967,5.108-7.435,10.615-9.13,15c0.842-1.422,2.24-2.973,2.726-3.451
						c-0.246,1.483-2.716,4.346-1.367,4.253c3.194-5.242,1.736,1.583,3.025-4.246c1.824-0.98,0.395,1.675,1.653,2.082
						c1.6-3.651,7.675-11.157,9.499-12.132c-0.827,1.324-1.614,3.212-1.968,4.078c1.691,1.597,1.369,4.618,3.174,5.705
						c-0.565,1.387-0.569,3.453-2.25,5.535c0.8-0.794,2.069-2.464,2.707-2.273c-1.527,5.233-1.668,0.003-3.982,6.017
						c1.832-3.058,3.89-3.446,5.796-4.926c2.472-4.928-1.338-1.973-3.242-0.497c3.748-6.605,9.079-12.723,12.728-14.689
						c2.453-0.775-1.765,4.643-0.967,3.853c2.202,2.778,8.986-10.148,8.652-4.035c-1.448,4.742-4.714,8.396-6.228,11.548
						c-2.145,0.889-0.385-3.752-1.321-4.061l-0.097,2.578c-1.189,1.174-2.619,1.766-2.377,0.291
						c-1.358,4.228,4.415,3.469,4.638,8.21c1.193-1.188,2.698-2.263,3.34-4.137l-1.032,0.192c1.286-3.757,3.979-3.946,3.996-6.033
						c2.29-1.853,5.469-5.005,5.697-2.339l-2.479,4.94c0.769-1.418,0.763-3.348-0.439-2.095c1.758-1.816-1.668,7.639,2.502,1.7
						l0.965-3.849c2.309-1.877,6.365-6.311,6.672-4.134c2.161-5.04-0.577,0.389,1.743-5.626c-3.199,7.306-2.822-1.987-5.785,5.918
						c2.805-6.918,0.077-3.566,2.081-9.684c-0.864,1.601-1.325,3.25-1.862,1.914c-0.307,0.437-0.745,0.966-1.007,1.272
						c-0.006-0.059-0.001-0.092,0.001-0.156c-0.015,0.072-0.04,0.149-0.052,0.218c-0.177,0.213-0.209,0.26-0.017,0.076
						c-0.16,0.824-0.443,1.764-0.868,2.691c-2.551,3.358-4.044,2.357-5.639,3.937c-0.154-1.082,1.274-1.676,1.916-3.546
						l-2.385,2.365c1.92-3.56,1.772-6.716,4.312-7.998l-1.144-0.857c0.394-2.384-0.159-3.735-1.615-2.606
						c-0.149-1.091-3.679,3.055-1.609,0.592l-3.171,1.079l0.481-0.889c-1.656-1.527-7.234,3.588-5.812-3.995
						c-1.146,0.522-2.427,1.23-2.935-0.378l1.518-3.16c-1.428,0.593-0.749-4.449-2.903-1.483c3.758-8.686-2.989-4.059-3.615-6.335
						l-2.31,3.939c-0.87-0.793-2.468-0.21-4.613,0.68l-1.916,3.551c-2.706,2.274-1.33-4.056-3.224-4.657
						c0.877-1.276,1.106-0.681,0.949,0.301c2.483-9.072-7.536,3.345-6.087-3.469c-1.181,1.017-1.265,0.394-1.083-0.67
						c0.047,0.016,0.122-0.027,0.218-0.12c-0.023-0.069-0.088-0.115-0.163-0.149c0.141-0.718,0.333-1.538,0.427-2.228
						c-0.293,0.961-0.509,1.767-0.535,2.183c-0.393-0.127-1.175,0.005-2.197,0.587l1.918-3.894
						c-0.071,0.026-0.101-0.001-0.182,0.038c0.277-1.682-1.426,1.55-2.763,4.54c-0.615,0.469-1.28,1.077-1.984,1.88
						c3.039-6.32-2.537,1.269,0.58-5.543c-2.15,2.963-3.983,0.886-8.043,7.383c0.475-0.877,0.555-1.377,0.868-1.271
						c-0.152-1.091-0.305-2.179-1.894-0.601l2.475-4.932l-4.934,5.719c0.885-3.359,1.528-5.238,4.391-8.489
						c-5.077,4.616-2.719,1.281-7.49,6.005l1.837-3.054c-0.631-0.202-3.89,3.435-2.776,0.682c2.083-6.604-5.78-4.36-5.91-11.672
						c-4.553,9.477,0.818-4.944-3.327,2.053c1.036-2.262,1.277-3.738,2.867-5.316c-2.857,1.181-0.54-4.831-5.068,0.482
						c1.042-2.274,2.151-2.963,2.71-4.339c-0.398,0.391-1.591,1.577-1.031,0.192c0.561-1.38,1.271-1.674,2.067-2.465
						c-1.895-0.596-5.842,5.955-9.51,12.125c0.823-3.44,0.159-3.266-2.784,0.475c0.861-2.209,1.578-4.628,3.044-4.765
						c-0.421-0.633-1.905-5.041-4.807-0.073c0.536-1.374-0.614-0.84-1.098-0.35c-1.155-1.05-1.015-1.567-2.585-1.833l-0.104,1.023
						c-3.941,5.742-1.845,0.731-3.306,0.862l0.382-0.602c0.069-5.718-2.223,1.497-1.772-4.818l-2.003,3.826
						c-4.808,7.948,0.604-5.955-2.526-3.649l-0.721,2.426c-2.322,2.336,4.136-12.171,3.954-13.609
						c0.235-0.796,0.9-0.979,1.425-1.368c0.729-5.884-3.05,4.772-5.172,5.078c1.235-2.806,4.181-6.545,3.47-7.601
						c0.726-2.428-7.766,6.975-6.229,1.121c-0.863,2.213-1.726,4.421-3.283,5.569c-1.463,0.134,1.555-9.336-3.052-3.432
						c0.184-0.634,0.437-1.198,0.72-1.709c-1.746,1.207-4.174,1.283-6.641,4.501c6.625-13.386-8.565,3.474-1.754-8.472l-2.83-0.759
						l0.759-1.186c-1.126-1.686-3.312,0.863-5.496,3.417c0.098-1.021,0.998-1.985,1.384-2.594c-0.933-3.719-1.45-3.341-6.765,1.518
						l2.003-3.992c-1.804,1.957,0.127-7.974-4.702-4.733c0.272-0.426,0.746-1.153,1.236-1.598c-5.126,3.108,0.03-14.216-8.926-0.618
						l-3.654,2.528c1.546,2.329-3.805,5.946-4.246,8.799c-1.324,0.344,0.215-5.514,1.676-5.644l-0.237,0.8
						c4.568-7.144-1.213-4.141,1.694-9.121c-4.474-2.063-6.319-8.503-10.139-11.088l-2.792,5.986l-1.208-1.121
						c0.392-1.541,2.053-4.758,2.913-3.955c1.32-3.542-3.212,1.768-3.948,2.998c-0.63-3.426,4.553-6.243,4.034-6.72l-1.054-0.033
						l-0.197,0.773c-1.986,1.965-3.453,4.411-4.488,3.449c-0.106-1.576,1.617-3.751,1.445-4.141c0.232-0.404,0.24-0.652-0.363-0.424
						l-1.479-1.487l-1.865,4.919c-2.045,1.785-1.518-1.176-3.616,4.405c3.295-8.57-4.944-6.559-4.283-9.423
						c-2.962,2.674-4.006,2.005-5.114,0.85c-0.202,1.128-2.891,6.323-3.688,5.047c6.378-10.246,0.479-5.748,3.835-13.819
						c-2.011,5.474-3.972-0.623-6.704,7.22c-0.478-1.394,2.171-3.958,2.845-6.839c-4.592,2.763-3.535-5.501-7.138-5.733
						c-0.826,1.351-1.549,3.724-3.318,5.428l2.419-7.729c-0.942,0.359-5.027,7.652-3.332,2.297c-0.514,1.24-1.291,3.108-1.915,3.335
						c-1.722-9.849-14.426-0.929-12.885-16.722c-0.755,3.1-1.412,3.076-2.049,2.845c0.016,0.852-1.94,3.395-2.925,5.302l0.591-6.517
						c-3.37,4.934-2.721-1.081-5.778,3.727l1.25-0.467c-4.31,5.28-5.99,13.771-10.394,21.185c4.882-6.011-2.663,11.496,4.558,3.024
						c-0.467,1.757-1.714,2.219-2.487,4.08c2.287-2.951,3.224-3.304,3.438-1.276l-0.568,0.729c3.345,0.864,2.789,4.739,4.849,8.699
						l1.864-3.843c0.418,0.894-0.095,2.14-0.294,3.254c3.996-5.164-1.786-1.434,2.467-7.216c-3.357,8.07,4.872,2.919,0.631,11.847
						c1.051,0.657,2.122-4.471,3.171-3.809l-1.032,2.482l1.97-2.834c0.426,0.894-0.865,3.997-1.955,5.976
						c-0.039-0.331-0.8,0.273-1.079,0.337c-0.636,3.252,3.112,0.534,2.92,1.603l-0.223-2.017c4.172-0.5,6.031,4.584,11.55,1.483
						l0.779-1.873c4.007-2.004,0.645,2.909,3.877,2.764l-0.324,0.368c1.467-1.472,2.602-1.989,3.141-1.42
						c-1.765,1.706-1.131,4.624-3.206,6.442c4.325-2.137,2.713-2.067,7.959-7.684l-1.289,3.104c2.02-2.324,2.851-3.682,4.468-3.759
						c-2.391,1.937-1.753,4.852-4.717,7.525c-1.11,7.764,7.346-4.303,3.218,5.629c5.709-7.381,0.374-5.686,1.993-7.041
						c0.954-2.93,4.356-5.465,4.681-4.214c0.695,0.632-4.482,11.044-2.39,12.03c-0.178-0.152-0.537,0.449-0.716,0.301
						c-0.413,2.474,3.046-1.939,2.076,1.912c3.275-4.563,1.037,0.958,4.704-5.152l-2.653,0.388c1.963-1.027,7.059-7.72,6.78-3.229
						c-0.844,1.174-2.289,2.527-3.161,3.244c-0.535,2.112,1.655-0.662,1.111,1.51c-3.672,6.117-3.002,0.079-6.804,4.171
						c-0.948,2.924,4.664-3.289,0.288,3.106c5.657-8.078,1.364,2.2,6.425-3.547l-2.2,3.663c0.547-0.462,1.989-1.964,2.33-1.644
						l-3.451,4.408c3.433-3.483,0.079,4.796,2.403,3.159c-2.273-1.139,2.047-4.756,2.652-7.996
						c5.547-3.423-3.953,10.603,0.108,10.554c-0.71,0.289-0.282-3.111,1.341-4.465c0.146,1.094,0.103,2.955-0.648,5.106
						c2.458,0.376,1.86-3.997,4.016-5.789c-1.882,4.915,2.038-1.279,3.747-2.224l-2.139,3.779c0.926,3.73,5.08-7.521,5.49-3.417
						l-3.85,4.737l1.849-0.739l-2.663,4.168c2.986-2.519,2.883-1.485,3.35,0.373c1.243-2.812,4.043-6.766,5.129-6.304
						c-0.579,2.638-2.428,3.367-0.676,3.649c-1.668,2.176-3.71,4.938-2.363,1.103c-0.764,1.194-1.668,2.187-2.425,3.364
						c-0.716,3.004,1.548,1.657,2.09,1.92c-0.121-0.256-0.247-0.596-0.064-1.204l5.067-4.041c-0.476,1.605-1.384,2.595-2.277,3.563
						c0.656-0.167,1.936-1.735,2.744-1.706c-1.905,2.977-3.666,6.166-5.37,7.109l3.93-2.271c-0.624,1.409-1.058,4.247-1.959,5.23
						c0.082,2.432,6.097-4.411,6.212-1.197c0.415-0.552,0.891-1.035,1.452-1.297c0.984,1.478,0.067,5.936,4.092,2.658l-2.199,6.029
						c1.989-0.522,2.682-7.644,5.993-8.508c2.505-0.896-2.103,5.013-2.444,6.846c2.326-2.348,6.837-7.25,5.68-1.985
						C309.607,90.312,309.71,89.294,309.049,89.459z M326.22,95.99c-0.755,0.617-2.754,2.716-1.712,0.361
						C327.313,92.224,326.406,94.448,326.22,95.99z M355.381,100.533c-0.937,1.12-0.937,0.301-0.522-1.353
						C355.322,99.034,355.568,99.361,355.381,100.533z M437.161,112.227c-0.048,0.054-0.083,0.094-0.137,0.165
						C437.178,110.533,437.09,111.251,437.161,112.227z M437.647,114.671c0.442-0.446,0.729-0.975,0.969-1.536
						c-0.642,0.899-0.997,0.783-1.207,0.31C436.947,114.491,436.741,115.279,437.647,114.671z M284.65,29.715l-0.286,1.146
						C283.124,31.592,283.857,30.709,284.65,29.715z"/>
					<path style="fill:#969694;" d="M349.725,104.153c0.276-0.687,0.652-1.404,1.035-2.126
						C350.279,102.593,349.86,103.325,349.725,104.153z"/>
					<path style="fill:#969694;" d="M298.105,85.864c0.001-0.04-0.021-0.037-0.024-0.07c-0.155,0.211-0.299,0.432-0.435,0.653
						L298.105,85.864z"/>
					<path style="fill:#969694;" d="M397.514,134.21c0.017-0.709,0.247-1.492,0.544-2.268
						C397.518,132.858,397.208,133.712,397.514,134.21z"/>
					<path style="fill:#969694;" d="M448.799,112.521l-1.466,0.466c0.545,0.062,0.233,0.977,0.114,1.702
						C447.929,113.796,448.481,112.421,448.799,112.521z"/>
					<path style="fill:#969694;" d="M443.404,140.358c0.395-0.387,0.31,0.11,0.707-0.285l0.961-1.775
						C444.441,138.092,443.243,139.282,443.404,140.358z"/>
					<path style="fill:#969694;" d="M442.513,125.543c-1.732,3.216-0.551,2.462,0.419,2.235c-0.045-0.01-0.096-0.004-0.112-0.064
						C445.532,123.376,444.019,124.462,442.513,125.543z"/>
					<path style="fill:#969694;" d="M443.14,127.754c0.28-0.037,0.528-0.007,0.633,0.254
						C444.859,126.27,443.746,127.502,443.14,127.754z"/>
					<path style="fill:#969694;" d="M440.64,113.587c-0.163,0.989,2.497-3.954,1.931-2.562
						C445.204,107.174,437.782,114.774,440.64,113.587z"/>
					<polygon style="fill:#969694;" points="437.083,136.297 439.083,132.247 436.931,135.205 					"/>
					<path style="fill:#969694;" d="M433.699,130.568l0.399,1.662c0.358-0.666,0.706-0.979,1.032-1.183
						C434.578,130.563,434.335,129.393,433.699,130.568z"/>
					<path style="fill:#969694;" d="M435.13,131.048c0.283,0.261,0.641,0.354,1.187-0.185
						C436.116,130.804,435.663,130.719,435.13,131.048z"/>
					<polygon style="fill:#969694;" points="435.026,136.685 435.19,135.697 434.636,135.002 					"/>
					<path style="fill:#969694;" d="M423.209,123.608l-1.747,0.494c-0.877,1.28-1.041,2.274-0.325,1.974
						C421.934,125.289,422.641,125.003,423.209,123.608z"/>
					<path style="fill:#969694;" d="M420.461,136.25c0.163-0.984,0.639-1.87,1.204-3.258l-2.795,4.841L420.461,136.25z"/>
					<path style="fill:#969694;" d="M416.584,135.547c-0.877,1.286-3.808,2.956-2.229,3.449
						C415.227,137.723,416.973,137.234,416.584,135.547z"/>
					<polygon style="fill:#969694;" points="403.372,119.909 403.689,120.008 408.176,112.015 					"/>
					<path style="fill:#969694;" d="M377.817,130.611c0.228,2.656,3.106-4.74,2.939-1.682c1.379-1.708,0.135-2.496,1.375-3.944
						C380.209,126.521,380.431,125.162,377.817,130.611z"/>
					<path style="fill:#969694;" d="M382.131,124.985c0.305-0.241,0.657-0.547,1.093-0.981
						C382.712,124.37,382.386,124.69,382.131,124.985z"/>
					<polygon style="fill:#969694;" points="235.369,-3.631 235.468,-5.773 234.492,-2.785 					"/>
					<path style="fill:#969694;" d="M230.389,1.359l2.686-5.192l-3.119,4.308C230.275,0.358,230.895,0.13,230.389,1.359z"/>
					<path style="fill:#969694;" d="M322.753,107.556l0.759-1.186c0.62-1.396,0.479-1.608,0.2-2.039L322.753,107.556z"/>
					<polygon style="fill:#969694;" points="313.456,97.245 313.595,97.459 315.836,92.657 					"/>
					<path style="fill:#969694;" d="M300.512,97.639c0.284,0.414,1.327-0.348,1.611,0.07
						C300.796,98.053,303.66,91.851,300.512,97.639z"/>
				</g>
			</g>
		</g>
	</g>
</g>
</svg>
